PathFileType	4	(X/Y/Z)	C:\Users\dbl\Desktop\LZH\BX\Trimmed_Trimmed_bx_y_5_501.trc
DataRate	CameraRate	NumFrames	NumMarkers	Units	OrigDataRate	OrigDataStartFrame	OrigNumFrames
50.00	50.00	       6	43	mm	50.00	384	       438
Frame#	Time	Top.Head			R.Acromium			L.Acromium			Sternum			R.ASIS			L.ASIS			V.Sacral			R.Thigh.Upper			R.Thigh.Front			R.Thigh.Rear			R.Knee.Lat			R.Knee.Med			R.Shank.Upper			R.Shank.Front			R.Shank.Rear			R.Ankle.Lat			R.Midfoot.Lat			R.Toe.Lat			R.Toe.Tip			R.Toe.Med			R.Ankle.Med			R.Midfoot.Sup			R.Heel			L.Thigh.Upper			L.Thigh.Front			L.Thigh.Rear			L.Knee.Lat			L.Knee.Med			L.Shank.Upper			L.Shank.Front			L.Shank.Rear			L.Ankle.Lat			L.Midfoot.Lat			L.Toe.Lat			L.Toe.Tip			L.Toe.Med			L.Ankle.Med			L.Midfoot.Sup			L.Heel			origin1 front left			origin2 front right			origin 3 back right			origin 4 back leftt			
		X1	Y1	Z1	X2	Y2	Z2	X3	Y3	Z3	X4	Y4	Z4	X5	Y5	Z5	X6	Y6	Z6	X7	Y7	Z7	X8	Y8	Z8	X9	Y9	Z9	X10	Y10	Z10	X11	Y11	Z11	X12	Y12	Z12	X13	Y13	Z13	X14	Y14	Z14	X15	Y15	Z15	X16	Y16	Z16	X17	Y17	Z17	X18	Y18	Z18	X19	Y19	Z19	X20	Y20	Z20	X21	Y21	Z21	X22	Y22	Z22	X23	Y23	Z23	X24	Y24	Z24	X25	Y25	Z25	X26	Y26	Z26	X27	Y27	Z27	X28	Y28	Z28	X29	Y29	Z29	X30	Y30	Z30	X31	Y31	Z31	X32	Y32	Z32	X33	Y33	Z33	X34	Y34	Z34	X35	Y35	Z35	X36	Y36	Z36	X37	Y37	Z37	X38	Y38	Z38	X39	Y39	Z39	X40	Y40	Z40	X41	Y41	Z41	X42	Y42	Z42	X43	Y43	Z43	

384	7.660	-196.81985	255.78209	1476.56531	-364.45779	50.18425	1358.44556	-364.99777	430.76181	1233.16333	-438.73444	227.29375	1183.11182	-721.76318	143.47540	1019.63898	-708.06250	385.75223	1027.64539	-929.50427	254.09885	1039.23926	-756.80347	92.38410	875.80725	-702.13013	148.13254	831.78448	-786.53564	82.12247	728.59570	-765.85889	118.40735	586.56641	-738.12903	224.96097	546.33331	-783.02362	116.64854	521.55499	-702.14722	166.59062	542.44263	-802.26880	119.07555	446.71042	-695.06335	140.85654	208.86409	-615.59631	78.53011	165.03452	-569.69452	53.74362	162.74518	-493.05161	98.62603	163.11821	-532.15631	147.64397	166.74959	-644.36700	213.38008	227.39529	-593.66711	187.93335	177.15211	-718.87213	211.05846	169.37978	-748.16907	437.04440	868.44550	-698.44373	376.17084	829.54816	-776.79346	450.89560	734.60559	-774.33911	419.46854	608.48669	-729.01093	312.50052	567.94037	-764.75903	418.80490	548.83569	-708.11566	374.52203	538.90814	-802.16705	426.39529	485.17416	-687.80957	421.86298	209.14737	-582.99652	469.68143	163.99097	-543.34833	477.83243	159.34840	-481.99478	426.70679	167.09927	-526.37537	388.47491	177.18839	-649.98914	332.13562	212.00443	-595.59198	351.20547	173.14687	-733.35187	349.23889	164.09375	-443.70187	449.06299	146.86256	-450.89285	75.57093	144.41078	-805.96423	82.46567	142.85178	-799.69910	458.09451	145.80746	
385	7.680	-204.07593	255.12457	1490.22583	-368.19260	50.17117	1362.05530	-367.10437	430.98740	1242.86536	-441.35641	229.73100	1186.40942	-719.68994	143.51692	1021.46399	-705.77313	385.97293	1029.42700	-927.64722	253.97437	1038.92407	-754.06714	92.39314	876.69147	-699.69379	148.47974	832.21533	-784.22485	82.17558	729.50708	-764.41241	118.30189	587.08063	-736.70526	224.87428	546.60059	-781.78149	116.52278	521.95544	-700.87830	166.44676	542.62909	-801.34943	119.02414	447.22662	-694.99084	140.97081	208.89720	-615.63947	78.50623	165.03497	-569.72583	53.69838	162.74664	-493.00690	98.44628	163.22359	-532.13928	147.63962	166.77986	-644.34204	213.54030	227.20250	-593.64838	187.95816	177.15967	-718.87360	211.06163	169.39359	-745.93158	436.81747	869.06445	-696.25348	376.04654	830.17780	-774.93787	450.58005	735.33997	-772.95612	419.40265	609.05981	-727.84912	312.55716	568.34436	-763.68353	418.50412	549.01154	-706.98138	374.55765	539.16339	-801.23071	426.21866	485.66541	-687.78302	421.86011	209.16327	-583.03217	469.70056	163.98424	-543.35400	477.84244	159.34401	-482.00369	426.71933	167.13301	-526.42834	388.54138	177.26248	-651.10205	333.00101	211.71161	-595.59863	351.20358	173.14757	-733.42139	349.19797	164.12965	-443.68057	449.09402	146.87633	-450.89609	75.56364	144.42601	-805.94751	82.45636	142.86516	-799.66785	458.13477	145.72800	
386	7.700	-211.86545	254.48688	1504.27100	-372.05457	50.17624	1365.76050	-369.47217	431.32791	1253.00635	-443.91824	232.09233	1189.89917	-717.41736	143.53525	1023.36127	-703.40088	386.16931	1031.18359	-925.61761	253.87210	1038.58508	-751.21191	92.39603	877.63165	-697.14465	148.89207	832.64667	-781.80634	82.23634	730.48694	-762.89984	118.19823	587.63220	-735.25037	224.79698	546.93091	-780.47522	116.41312	522.36407	-699.54321	166.30504	542.82397	-800.39978	118.99905	447.76563	-694.95807	141.05128	208.94583	-615.69482	78.47406	165.03110	-569.77148	53.65078	162.73859	-492.96863	98.29761	163.32036	-532.12201	147.63145	166.83392	-644.30530	213.66408	227.05156	-593.64685	187.97304	177.17032	-718.86176	211.07622	169.36623	-743.56921	436.66309	869.69629	-693.93982	375.95911	830.73224	-772.98853	450.24402	736.05896	-771.52252	419.33481	609.62842	-726.62152	312.62634	568.82129	-762.56934	418.13980	549.15759	-705.79517	374.60190	539.43030	-800.25354	425.99500	486.17386	-687.74585	421.85394	209.18333	-583.07062	469.72137	163.98705	-543.35699	477.85062	159.34174	-482.02692	426.72897	167.16464	-526.49323	388.62064	177.33116	-651.67023	333.50668	211.55971	-595.61230	351.19604	173.14259	-733.47583	349.15857	164.12970	-443.66434	449.11569	146.88451	-450.88843	75.53362	144.45567	-805.92511	82.45267	142.87775	-799.62457	458.17746	145.63844	
387	7.720	-220.16922	253.87056	1518.61511	-376.04242	50.19990	1369.55884	-372.12378	431.79108	1263.53735	-446.41339	234.37430	1193.57996	-714.90967	143.58334	1025.20581	-700.95068	386.34131	1032.89392	-923.36975	253.76901	1038.21045	-748.23901	92.40648	878.59375	-694.48267	149.30714	833.13843	-779.27142	82.29053	731.52234	-761.31073	118.10115	588.21259	-733.75757	224.73445	547.37000	-779.10870	116.32957	522.78961	-698.12573	166.17422	543.02881	-799.41058	119.00694	448.33160	-694.96686	141.09668	209.01215	-615.75330	78.44087	165.02484	-569.82458	53.61100	162.72035	-492.94260	98.18940	163.39958	-532.09937	147.62335	166.91011	-644.24451	213.73582	226.96092	-593.65497	187.98399	177.17987	-718.82642	211.11218	169.28000	-741.07605	436.58392	870.37292	-691.49841	375.89075	831.23218	-770.92938	449.88226	736.75177	-770.02509	419.25745	610.20038	-725.29883	312.69052	569.35986	-761.40369	417.75226	549.34869	-704.54401	374.63373	539.70703	-799.22430	425.72498	486.71292	-687.69971	421.84216	209.21158	-583.11011	469.74524	163.99850	-543.35779	477.85556	159.34311	-482.06393	426.74377	167.18979	-526.56079	388.70639	177.39857	-651.79108	333.69656	211.51372	-595.62799	351.18610	173.13470	-733.50806	349.12488	164.08580	-443.65573	449.12378	146.88516	-450.87030	75.49165	144.49199	-805.90631	82.45855	142.88164	-799.57043	458.21143	145.55739	
388	7.740	-228.97452	253.27046	1533.17749	-380.15503	50.24261	1373.44812	-375.07520	432.36755	1274.38464	-448.83530	236.57346	1197.45068	-712.14392	143.68513	1026.90710	-698.42004	386.49832	1034.55286	-920.87042	253.64674	1037.79712	-745.13831	92.43491	879.54816	-691.69281	149.65544	833.74817	-776.59656	82.32917	732.58856	-759.63068	118.01575	588.81415	-732.21619	224.69156	547.95679	-777.68085	116.27856	523.24512	-696.61053	166.05937	543.24847	-798.36517	119.04700	448.93048	-695.00781	141.11240	209.09903	-615.80475	78.41406	165.02037	-569.87384	53.58772	162.69734	-492.93036	98.11811	163.45836	-532.06683	147.61909	167.00145	-644.15485	213.75333	226.92755	-593.65906	187.99596	177.18575	-718.76202	211.17456	169.13147	-738.45068	436.56332	871.12207	-688.92401	375.83121	831.70044	-768.74725	449.50879	737.42242	-768.44861	419.16769	610.79248	-723.85358	312.75635	569.91510	-760.17383	417.38794	549.66138	-703.21515	374.64087	539.99310	-798.13147	425.42404	487.29602	-687.64807	421.82181	209.24976	-583.15051	469.77271	164.01360	-543.35742	477.85776	159.34714	-482.11185	426.77029	167.20621	-526.62091	388.79260	177.47066	-651.63440	333.67160	211.51808	-595.63989	351.17758	173.12767	-733.51801	349.10446	164.00139	-443.65436	449.11929	146.87987	-450.84467	75.45294	144.52481	-805.90228	82.47590	142.86966	-799.50995	458.23050	145.50121	
389	7.760	-238.26880	252.67685	1547.88074	-384.39133	50.30483	1377.42615	-378.32803	433.03250	1285.45850	-451.17725	238.68640	1201.51050	-709.11664	143.83931	1028.42383	-695.79999	386.65421	1036.16492	-918.11188	253.49542	1037.35535	-741.88776	92.48915	880.47375	-688.74792	149.88510	834.50854	-773.74731	82.34819	733.65967	-757.84326	117.94824	589.43024	-730.61047	224.67139	548.69946	-776.18286	116.26089	523.74414	-694.98688	165.95885	543.49249	-797.24182	119.11254	449.56683	-695.06073	141.10902	209.20831	-615.84106	78.39896	165.02252	-569.90729	53.58559	162.67896	-492.92804	98.07335	163.49890	-532.02338	147.61998	167.09793	-644.03528	213.72746	226.93207	-593.64673	188.01207	177.18279	-718.67145	211.26001	168.93604	-735.69458	436.56989	871.95349	-686.20917	375.78220	832.15759	-766.43164	449.15421	738.08881	-766.77710	419.06793	611.42303	-722.26129	312.84995	570.41632	-758.86639	417.07803	550.14514	-701.79584	374.62363	540.28723	-796.96564	425.11441	487.93127	-687.59375	421.78943	209.29634	-583.19299	469.80130	164.02563	-543.35675	477.85855	159.35081	-482.16534	426.81003	167.21420	-526.66553	388.87430	177.55038	-651.37408	333.54507	211.51677	-595.64392	351.17389	173.12460	-733.51050	349.10306	163.89066	-443.65765	449.10699	146.87270	-450.81668	75.42909	144.54617	-805.92267	82.50375	142.83807	-799.45074	458.23346	145.48088	
